<mxfile host="app.diagrams.net" agent="Mozilla/5.0 (X11; CrOS x86_64 14541.0.0) AppleWebKit/537.36 (KHTML, like Gecko) Chrome/126.0.0.0 Safari/537.36" version="24.7.7">
  <diagram name="Page-1" id="eHpVjvWTnNfStSWdiLPp">
    <mxGraphModel dx="1035" dy="541" grid="1" gridSize="10" guides="1" tooltips="1" connect="1" arrows="1" fold="1" page="1" pageScale="1" pageWidth="850" pageHeight="1100" math="0" shadow="0">
      <root>
        <mxCell id="0" />
        <mxCell id="1" parent="0" />
        <mxCell id="77V5zyAyDyiWHfFOUKDh-1" value="" style="rounded=0;whiteSpace=wrap;html=1;rotation=90;" vertex="1" parent="1">
          <mxGeometry x="194.56" y="160" width="500" height="330" as="geometry" />
        </mxCell>
        <mxCell id="77V5zyAyDyiWHfFOUKDh-2" value="penjaga piket" style="shape=umlActor;verticalLabelPosition=bottom;verticalAlign=top;html=1;outlineConnect=0;" vertex="1" parent="1">
          <mxGeometry x="70" y="230" width="110" height="180" as="geometry" />
        </mxCell>
        <mxCell id="77V5zyAyDyiWHfFOUKDh-3" value="konsumen" style="shape=umlActor;verticalLabelPosition=bottom;verticalAlign=top;html=1;outlineConnect=0;" vertex="1" parent="1">
          <mxGeometry x="680" y="230" width="110" height="180" as="geometry" />
        </mxCell>
        <mxCell id="77V5zyAyDyiWHfFOUKDh-8" value="&lt;h1 style=&quot;margin-top: 0px;&quot;&gt;SPW Canteen&lt;/h1&gt;" style="text;html=1;whiteSpace=wrap;overflow=hidden;rounded=0;" vertex="1" parent="1">
          <mxGeometry x="370" y="80" width="180" height="40" as="geometry" />
        </mxCell>
        <mxCell id="77V5zyAyDyiWHfFOUKDh-9" value="login" style="ellipse;whiteSpace=wrap;html=1;" vertex="1" parent="1">
          <mxGeometry x="384.56" y="150" width="120" height="80" as="geometry" />
        </mxCell>
        <mxCell id="77V5zyAyDyiWHfFOUKDh-10" value="mengisi&lt;div&gt;data&amp;nbsp;&lt;span style=&quot;background-color: initial;&quot;&gt;produk&lt;/span&gt;&lt;/div&gt;" style="ellipse;whiteSpace=wrap;html=1;" vertex="1" parent="1">
          <mxGeometry x="384.56" y="250" width="120" height="80" as="geometry" />
        </mxCell>
        <mxCell id="77V5zyAyDyiWHfFOUKDh-11" value="pencatatan data" style="ellipse;whiteSpace=wrap;html=1;" vertex="1" parent="1">
          <mxGeometry x="384.56" y="350" width="120" height="80" as="geometry" />
        </mxCell>
        <mxCell id="77V5zyAyDyiWHfFOUKDh-12" value="melihat&lt;div&gt;data produk&lt;/div&gt;" style="ellipse;whiteSpace=wrap;html=1;" vertex="1" parent="1">
          <mxGeometry x="384.56" y="460" width="120" height="80" as="geometry" />
        </mxCell>
        <mxCell id="77V5zyAyDyiWHfFOUKDh-13" value="" style="endArrow=none;html=1;rounded=0;" edge="1" parent="1" source="77V5zyAyDyiWHfFOUKDh-2" target="77V5zyAyDyiWHfFOUKDh-9">
          <mxGeometry width="50" height="50" relative="1" as="geometry">
            <mxPoint x="150" y="180" as="sourcePoint" />
            <mxPoint x="200" y="130" as="targetPoint" />
          </mxGeometry>
        </mxCell>
        <mxCell id="77V5zyAyDyiWHfFOUKDh-14" value="" style="endArrow=none;html=1;rounded=0;entryX=0;entryY=0.5;entryDx=0;entryDy=0;" edge="1" parent="1" source="77V5zyAyDyiWHfFOUKDh-2" target="77V5zyAyDyiWHfFOUKDh-10">
          <mxGeometry width="50" height="50" relative="1" as="geometry">
            <mxPoint x="200" y="370" as="sourcePoint" />
            <mxPoint x="250" y="320" as="targetPoint" />
          </mxGeometry>
        </mxCell>
        <mxCell id="77V5zyAyDyiWHfFOUKDh-15" value="" style="endArrow=none;html=1;rounded=0;entryX=0;entryY=0.5;entryDx=0;entryDy=0;" edge="1" parent="1" source="77V5zyAyDyiWHfFOUKDh-2" target="77V5zyAyDyiWHfFOUKDh-11">
          <mxGeometry width="50" height="50" relative="1" as="geometry">
            <mxPoint x="150" y="510" as="sourcePoint" />
            <mxPoint x="200" y="460" as="targetPoint" />
          </mxGeometry>
        </mxCell>
        <mxCell id="77V5zyAyDyiWHfFOUKDh-16" value="" style="endArrow=none;html=1;rounded=0;entryX=0;entryY=0.5;entryDx=0;entryDy=0;" edge="1" parent="1" source="77V5zyAyDyiWHfFOUKDh-2" target="77V5zyAyDyiWHfFOUKDh-12">
          <mxGeometry width="50" height="50" relative="1" as="geometry">
            <mxPoint x="120" y="540" as="sourcePoint" />
            <mxPoint x="170" y="490" as="targetPoint" />
          </mxGeometry>
        </mxCell>
        <mxCell id="77V5zyAyDyiWHfFOUKDh-17" value="" style="endArrow=none;html=1;rounded=0;exitX=0.976;exitY=0.612;exitDx=0;exitDy=0;exitPerimeter=0;" edge="1" parent="1" source="77V5zyAyDyiWHfFOUKDh-12" target="77V5zyAyDyiWHfFOUKDh-3">
          <mxGeometry width="50" height="50" relative="1" as="geometry">
            <mxPoint x="660" y="500" as="sourcePoint" />
            <mxPoint x="710" y="450" as="targetPoint" />
          </mxGeometry>
        </mxCell>
      </root>
    </mxGraphModel>
  </diagram>
</mxfile>
